<svg width="78" height="28" viewBox="0 0 78 28" fill="none" xmlns="http://www.w3.org/2000/svg">
<path fill-rule="evenodd" clip-rule="evenodd" d="M65.7698 0H71.0775C71.6929 0 72.2313 0.535828 72.2313 1.1482V6.12374C72.2313 6.96576 72.9237 7.65468 73.7698 7.65468H77.1544C77.6159 7.65468 78.0006 8.03741 78.0006 8.49669V12.5537C78.0006 13.013 77.6159 13.3957 77.1544 13.3957H73.7698C73.3083 13.3957 72.9237 13.5488 72.616 13.855L72.3852 14.0846C72.0775 14.3908 71.9237 14.7735 71.9237 15.1563V17.223C71.9237 17.5292 71.616 17.8354 71.3083 17.8354H68.4621C68.1544 17.8354 67.8467 17.5292 67.8467 17.223V14.3908C67.8467 14.0846 68.1544 13.7784 68.4621 13.7784H70.3852C70.8467 13.7784 71.2313 13.6253 71.539 13.3191L71.6929 13.166C72.0006 12.8599 72.1544 12.4771 72.1544 12.0944V9.10907C72.1544 8.26705 71.4621 7.57813 70.616 7.57813H65.6929C65.0775 7.57813 64.5391 7.0423 64.5391 6.42993V1.1482C64.616 0.535828 65.1544 0 65.7698 0Z" fill="#036EB8"/>
<path d="M21.3845 27.0209H18.1538V16.9167C18.1538 15.0796 17.3076 14.0845 15.5384 14.0845C14.6153 14.0845 13.8461 14.3907 13.3077 14.9265C12.6923 15.5389 12.3846 16.4574 12.3846 17.6056V26.9444H9.15382V16.9167C9.15382 15.0796 8.30767 14.0845 6.53844 14.0845C5.61537 14.0845 4.84614 14.3907 4.30768 14.9265C3.6923 15.5389 3.3846 16.4574 3.3846 17.6056V26.9444H0V12.0943H1.76923L2.92307 13.7783C3.76922 12.4005 5.15383 11.7881 7.0769 11.7881C9.46151 11.7881 11.0769 12.7066 11.8461 14.4672L11.7692 14.161C12.3077 12.7066 13.7692 11.9412 16.1538 11.8646C17.7692 11.8646 19.0769 12.3239 19.9999 13.1659C20.923 14.0845 21.3845 15.3858 21.3845 17.0698V27.0209Z" fill="#595757"/>
<path d="M37.8461 25.3371C36.3077 26.6384 34.4615 27.2508 32.2307 27.2508C29.8461 27.2508 27.9231 26.5618 26.3846 25.184C24.7692 23.8062 24 21.8925 24 19.5961C24 17.2997 24.8462 15.4626 26.4615 14.0082C28 12.6303 29.9231 11.9414 32.1538 11.9414C34.1538 11.9414 36 12.3241 37.5384 13.1662L36.6153 16.0749C35.6153 14.9267 34.1538 14.3144 32.3077 14.3144C31 14.3144 29.8461 14.8502 28.9231 15.8453C28 16.8404 27.5384 18.0651 27.5384 19.5961C27.5384 21.2801 28 22.5049 29 23.5C29.9231 24.342 31.0769 24.8013 32.4615 24.8013C34.2307 24.8013 35.6153 24.1123 36.6923 22.811L37.8461 25.3371Z" fill="#595757"/>
<path d="M51.6923 17.07V27.0211H50.3846L48.7692 25.4136C47.6923 26.6384 46.3077 27.2508 44.5384 27.2508C42.9231 27.2508 41.6154 26.7915 40.6154 25.8729C39.5385 24.9544 39 23.8062 39 22.3518C39 20.8208 39.5385 19.5961 40.6154 18.7541C41.6923 17.8355 43.1538 17.4528 45 17.4528H48.4615C48.4615 16.3811 48.0769 15.5391 47.3846 15.0033C46.7692 14.544 46.0769 14.3144 45.1538 14.3144C43.6923 14.3144 42.3846 14.6971 41.3077 15.5391L40.3077 12.9365C40.7692 12.7069 41.6154 12.4772 42.6923 12.2476C43.6923 12.018 44.5384 11.9414 45.1538 11.9414C47 11.9414 48.5384 12.3241 49.6923 13.1662C51 14.0082 51.6923 15.3095 51.6923 17.07ZM48.4615 21.5863V19.6726H45.5384C44.4615 19.6726 43.6923 19.9023 43.0769 20.3616C42.4615 20.8208 42.2308 21.4332 42.2308 22.1987C42.2308 22.8876 42.4615 23.5 43 23.9593C43.5384 24.4185 44.3077 24.7247 45.1538 24.7247C46.0769 24.7247 46.8461 24.4951 47.4615 24.0358C48.1538 23.4234 48.4615 22.658 48.4615 21.5863Z" fill="#595757"/>
<path d="M64.8461 23.6531C64.6923 24.7247 64.0769 25.5667 63 26.2557C62 26.868 60.6923 27.1742 59.2308 27.1742C57.0769 27.1742 55.3846 26.6384 54 25.5667L55.5385 23.1172C56.5385 24.1889 57.7692 24.8013 59.2308 24.8013C60.5384 24.8013 61.3077 24.4185 61.4615 23.6531C61.5384 23.5 61.5384 23.3469 61.5384 23.1938C61.5384 22.658 61.1538 22.1987 60.4615 21.6628C59.6154 21.127 58.3846 20.4381 56.8461 19.443C55.1538 18.3713 54.3077 17.1466 54.3077 15.7687C54.3077 15.4626 54.3846 15.1564 54.4615 14.8502C54.9231 12.86 56.6923 11.9414 59.6923 11.9414C60.5384 11.9414 61.4615 12.0945 62.4615 12.4007C63.4615 12.7069 64.1538 13.0896 64.5384 13.5489L63.0769 15.9218C62.2307 14.8502 61.0769 14.3144 59.6154 14.3144C58.5384 14.3144 57.9231 14.6205 57.7692 15.2329C57.7692 15.3095 57.6923 15.4626 57.6923 15.5391C57.6923 16.1515 58.1538 16.7639 59 17.2997C59.7692 17.759 60.8461 18.3713 62.2307 19.2134C64 20.285 64.8461 21.5098 64.8461 23.0407C64.923 23.1938 64.923 23.4234 64.8461 23.6531Z" fill="#595757"/>
</svg>
